<?xml version="1.0" encoding="UTF-8" standalone="no"?>
<!DOCTYPE svg PUBLIC "-//W3C//DTD SVG 1.1//EN" "http://www.w3.org/Graphics/SVG/1.1/DTD/svg11.dtd">
<svg width="100%" height="100%" viewBox="0 0 899 899" version="1.1" xmlns="http://www.w3.org/2000/svg" xmlns:xlink="http://www.w3.org/1999/xlink" xml:space="preserve" xmlns:serif="http://www.serif.com/" style="fill-rule:evenodd;clip-rule:evenodd;stroke-linejoin:round;stroke-miterlimit:1.41421;">
    <g transform="matrix(1,0,0,1,-3896.5,-184)">
        <g id="Página-2" serif:id="Página 2" transform="matrix(2.95614,0,0,2.95614,3896.5,184)">
            <rect x="0" y="0" width="304" height="304" style="fill:none;"/>
            <g id="Layer-1" serif:id="Layer 1" transform="matrix(1.4095,0,0,1.4095,-62.2433,-62.2433)">
                <g transform="matrix(1,0,0,1,152,206)">
                    <path d="M0,-108C-29.776,-108 -54,-83.775 -54,-54C-54,-24.225 -29.776,0 0,0C29.776,0 54,-24.225 54,-54C54,-83.775 29.776,-108 0,-108M0,50C-57.346,50 -104,3.346 -104,-54C-104,-111.346 -57.346,-158 0,-158C57.346,-158 104,-111.346 104,-54C104,3.346 57.346,50 0,50" style="fill:white;fill-rule:nonzero;"/>
                </g>
                <g transform="matrix(-1,-0,-0,1,465,97.093)">
                    <rect x="209" y="52.62" width="47" height="101.667" style="fill:white;"/>
                </g>
                <g transform="matrix(1,0,0,1,139.93,134.239)">
                    <path d="M0,0.002C0,3.573 -2.895,6.468 -6.466,6.468C-10.038,6.468 -12.933,3.573 -12.933,0.002C-12.933,-3.57 -10.038,-6.466 -6.466,-6.466C-2.895,-6.466 0,-3.57 0,0.002" style="fill:white;fill-rule:nonzero;"/>
                </g>
                <g transform="matrix(1,0,0,1,179.948,134.239)">
                    <path d="M0,0.002C0,3.573 -2.895,6.468 -6.467,6.468C-10.04,6.468 -12.935,3.573 -12.935,0.002C-12.935,-3.57 -10.04,-6.466 -6.467,-6.466C-2.895,-6.466 0,-3.57 0,0.002" style="fill:white;fill-rule:nonzero;"/>
                </g>
                <g transform="matrix(1,0,0,1,124.756,180.388)">
                    <path d="M0,-18.528C2.587,-17.294 4.976,-15.847 7.32,-14.353C7.91,-13.954 8.467,-13.645 9.025,-13.32C9.595,-13.013 10.093,-12.626 10.68,-12.365C11.257,-12.091 11.813,-11.801 12.366,-11.514C12.91,-11.212 13.526,-11.038 14.081,-10.772C14.646,-10.524 15.204,-10.271 15.801,-10.105L17.528,-9.502C18.726,-9.238 19.856,-8.821 21.058,-8.658C23.41,-8.164 25.806,-7.959 28.188,-8.003C30.575,-7.969 32.954,-8.305 35.301,-8.797C37.676,-9.239 39.949,-10.1 42.237,-11.039C42.789,-11.312 43.361,-11.56 43.936,-11.818C44.502,-12.087 45.023,-12.431 45.593,-12.718L46.437,-13.171L47.319,-13.698L49.113,-14.749C51.534,-16.117 53.997,-17.435 56.649,-18.528C55.122,-16.1 53.405,-13.897 51.647,-11.743C50.727,-10.67 49.943,-9.636 48.832,-8.576C48.305,-8.049 47.78,-7.506 47.208,-7.022C46.625,-6.553 46.04,-6.075 45.435,-5.622C40.558,-2.061 34.422,-0.01 28.262,-0.006L27.107,0C26.723,-0.013 26.34,-0.054 25.956,-0.081C25.19,-0.153 24.42,-0.181 23.66,-0.296C22.149,-0.591 20.628,-0.819 19.174,-1.326C17.695,-1.728 16.294,-2.37 14.903,-2.978C13.563,-3.713 12.205,-4.39 10.998,-5.314C9.74,-6.15 8.616,-7.161 7.531,-8.182C6.979,-8.679 6.509,-9.271 6.017,-9.821C5.539,-10.386 5.036,-10.943 4.647,-11.498C3.002,-13.739 1.402,-16.028 0,-18.528" style="fill:white;fill-rule:nonzero;"/>
                </g>
                <g transform="matrix(1,0,0,1,245.554,50.7225)">
                    <path d="M0,9.342L0,0L3.972,0C4.969,0 5.694,0.083 6.146,0.25C6.598,0.418 6.961,0.716 7.233,1.147C7.505,1.575 7.642,2.068 7.642,2.619C7.642,3.319 7.434,3.899 7.022,4.355C6.612,4.813 5.994,5.099 5.174,5.219C5.583,5.456 5.92,5.718 6.185,6.003C6.45,6.286 6.807,6.793 7.261,7.519L8.4,9.342L6.143,9.342L4.779,7.31C4.295,6.581 3.963,6.124 3.786,5.935C3.606,5.746 3.417,5.617 3.217,5.548C3.019,5.476 2.703,5.442 2.268,5.442L1.886,5.442L1.886,9.342L0,9.342ZM1.886,3.951L3.284,3.951C4.186,3.951 4.752,3.912 4.976,3.835C5.201,3.759 5.379,3.628 5.506,3.44C5.634,3.253 5.697,3.021 5.697,2.741C5.697,2.425 5.613,2.172 5.445,1.978C5.279,1.786 5.042,1.662 4.735,1.611C4.583,1.591 4.125,1.58 3.359,1.58L1.886,1.58L1.886,3.951Z" style="fill:white;fill-rule:nonzero;"/>
                </g>
                <g transform="matrix(1,0,0,1,257.5,55.749)">
                    <path d="M0,0.002C0,4.557 -3.694,8.251 -8.251,8.251C-12.806,8.251 -16.5,4.557 -16.5,0.002C-16.5,-4.555 -12.806,-8.249 -8.251,-8.249C-3.694,-8.249 0,-4.555 0,0.002M-8.251,6.972C-4.406,6.972 -1.279,3.847 -1.279,0.002C-1.279,-3.843 -4.406,-6.97 -8.251,-6.97C-12.096,-6.97 -15.221,-3.843 -15.221,0.002C-15.221,3.847 -12.096,6.972 -8.251,6.972" style="fill:white;fill-rule:nonzero;"/>
                </g>
            </g>
        </g>
    </g>
</svg>
