<?xml version="1.0" encoding="UTF-8" standalone="no"?>
<!DOCTYPE svg PUBLIC "-//W3C//DTD SVG 1.1//EN" "http://www.w3.org/Graphics/SVG/1.1/DTD/svg11.dtd">
<svg width="100%" height="100%" viewBox="0 0 3300 898" version="1.1" xmlns="http://www.w3.org/2000/svg" xmlns:xlink="http://www.w3.org/1999/xlink" xml:space="preserve" xmlns:serif="http://www.serif.com/" style="fill-rule:evenodd;clip-rule:evenodd;stroke-linejoin:round;stroke-miterlimit:1.41421;">
    <g transform="matrix(1,0,0,1,0,-131.221)">
        <g id="Página-1" serif:id="Página 1" transform="matrix(4.16667,0,0,3.05911,0,131.221)">
            <rect x="0" y="0" width="792" height="293.5" style="fill:none;"/>
            <g id="Layer-1" serif:id="Layer 1" transform="matrix(1,0,0,1.36205,0,-42.895)">
                <g transform="matrix(1,0,0,1,532.93,199.99)">
                    <path d="M0,-83.874C-23.125,-83.874 -41.938,-65.062 -41.938,-41.936C-41.938,-18.811 -23.125,0.001 0,0.001C23.124,0.001 41.938,-18.811 41.938,-41.936C41.938,-65.062 23.124,-83.874 0,-83.874M0,37.706C-43.916,37.706 -79.644,1.979 -79.644,-41.936C-79.644,-85.853 -43.916,-121.58 0,-121.58C43.915,-121.58 79.643,-85.853 79.643,-41.936C79.643,1.979 43.915,37.706 0,37.706" style="fill:rgb(0,101,161);fill-rule:nonzero;"/>
                </g>
                <g transform="matrix(1,0,0,1,111.697,192.449)">
                    <path d="M0,-107.686C-29.689,-107.686 -53.843,-83.533 -53.843,-53.844C-53.843,-24.155 -29.689,-0.001 0,-0.001C29.689,-0.001 53.843,-24.155 53.843,-53.844C53.843,-83.533 29.689,-107.686 0,-107.686M0,49.854C-57.179,49.854 -103.697,3.335 -103.697,-53.844C-103.697,-111.022 -57.179,-157.54 0,-157.54C57.179,-157.54 103.697,-111.022 103.697,-53.844C103.697,3.335 57.179,49.854 0,49.854" style="fill:rgb(0,101,161);fill-rule:nonzero;"/>
                </g>
                <g transform="matrix(-1,-0,-0,1,383.927,80.522)">
                    <rect x="168.532" y="55.804" width="46.863" height="101.37" style="fill:rgb(0,101,161);"/>
                </g>
                <g transform="matrix(1,0,0,1,536.543,62.8673)">
                    <path d="M0,174.829L-88.744,174.829C-120.083,174.829 -145.578,149.334 -145.578,117.995L-145.578,0L-105.694,0L-105.694,117.995C-105.694,127.338 -98.087,134.946 -88.744,134.946L-41.549,134.946C-32.604,152.465 -17.918,166.583 0,174.829" style="fill:rgb(0,101,161);fill-rule:nonzero;"/>
                </g>
                <g transform="matrix(-0.388609,-0.921403,-0.921403,0.388609,381.283,72.4998)">
                    <path d="M-56.805,-73.089C-62.064,-60.31 -70.325,-48.774 -81.108,-39.627L-56.805,17.995C-42.733,16.648 -28.702,18.792 -15.884,23.938L-56.805,-73.089Z" style="fill:rgb(255,159,21);fill-rule:nonzero;"/>
                </g>
                <g transform="matrix(1,0,0,1,620.715,78.4113)">
                    <path d="M0,159.285L37.71,159.285L37.71,147.32L37.71,79.639C37.71,56.515 56.525,37.7 79.647,37.7C102.321,37.7 120.848,55.788 121.565,78.292L121.565,159.285L159.275,159.285L159.275,80.326C159.285,80.097 159.285,79.867 159.285,79.639C159.285,79.409 159.285,79.18 159.275,78.95L159.245,77.354C158.039,34.49 122.792,0 79.647,0C36.504,0 1.247,34.49 0.04,77.354" style="fill:rgb(0,101,161);fill-rule:nonzero;"/>
                </g>
                <g transform="matrix(1,0,0,1,223.537,78.4113)">
                    <path d="M0,159.285L37.71,159.285L37.71,147.32L37.71,79.639C37.71,56.515 56.525,37.7 79.647,37.7C102.321,37.7 120.847,55.788 121.565,78.292L121.565,159.285L159.275,159.285L159.275,80.326C159.285,80.097 159.285,79.867 159.285,79.639C159.285,79.409 159.285,79.18 159.275,78.95L159.245,77.354C158.039,34.49 122.792,0 79.647,0C36.503,0 1.247,34.49 0.04,77.354" style="fill:rgb(0,101,161);fill-rule:nonzero;"/>
                </g>
                <g transform="matrix(1,0,0,1,99.6626,120.896)">
                    <path d="M0,0.002C0,3.563 -2.887,6.449 -6.447,6.449C-10.009,6.449 -12.896,3.563 -12.896,0.002C-12.896,-3.561 -10.009,-6.447 -6.447,-6.447C-2.887,-6.447 0,-3.561 0,0.002" style="fill:rgb(255,159,21);fill-rule:nonzero;"/>
                </g>
                <g transform="matrix(1,0,0,1,139.564,120.896)">
                    <path d="M0,0.002C0,3.563 -2.887,6.449 -6.449,6.449C-10.011,6.449 -12.898,3.563 -12.898,0.002C-12.898,-3.561 -10.011,-6.447 -6.449,-6.447C-2.887,-6.447 0,-3.561 0,0.002" style="fill:rgb(255,159,21);fill-rule:nonzero;"/>
                </g>
                <g transform="matrix(1,0,0,1,84.5327,166.911)">
                    <path d="M0,-18.474C2.58,-17.244 4.962,-15.801 7.299,-14.311C7.887,-13.913 8.442,-13.606 9,-13.282C9.567,-12.976 10.063,-12.589 10.649,-12.328C11.224,-12.056 11.779,-11.767 12.33,-11.48C12.873,-11.18 13.487,-11.005 14.04,-10.741C14.604,-10.494 15.16,-10.242 15.755,-10.076L17.478,-9.475C18.671,-9.211 19.799,-8.795 20.997,-8.633C23.342,-8.14 25.731,-7.936 28.106,-7.98C30.486,-7.946 32.858,-8.282 35.198,-8.771C37.566,-9.212 39.833,-10.071 42.114,-11.007C42.665,-11.28 43.235,-11.527 43.808,-11.784C44.373,-12.052 44.892,-12.395 45.46,-12.681L46.302,-13.132L47.182,-13.659L48.971,-14.706C51.384,-16.07 53.839,-17.384 56.484,-18.474C54.961,-16.053 53.25,-13.857 51.497,-11.708C50.579,-10.639 49.798,-9.609 48.689,-8.551C48.164,-8.026 47.641,-7.485 47.071,-7.002C46.489,-6.535 45.906,-6.058 45.303,-5.606C40.44,-2.055 34.322,-0.01 28.18,-0.006L27.029,0C26.646,-0.013 26.263,-0.054 25.881,-0.08C25.117,-0.152 24.349,-0.181 23.591,-0.295C22.084,-0.589 20.568,-0.817 19.118,-1.323C17.644,-1.723 16.247,-2.364 14.86,-2.969C13.524,-3.702 12.169,-4.377 10.966,-5.298C9.712,-6.132 8.591,-7.141 7.51,-8.159C6.959,-8.654 6.49,-9.245 6,-9.793C5.523,-10.357 5.021,-10.911 4.634,-11.464C2.994,-13.7 1.398,-15.981 0,-18.474" style="fill:rgb(255,159,21);fill-rule:nonzero;"/>
                </g>
                <g transform="matrix(1,0,0,1,768.078,66.08)">
                    <path d="M0,9.315L0,0L3.961,0C4.954,0 5.678,0.083 6.129,0.25C6.579,0.417 6.941,0.714 7.212,1.144C7.483,1.571 7.62,2.062 7.62,2.612C7.62,3.31 7.413,3.887 7.002,4.343C6.593,4.799 5.977,5.085 5.16,5.204C5.567,5.44 5.903,5.702 6.167,5.986C6.432,6.268 6.788,6.773 7.24,7.497L8.376,9.315L6.126,9.315L4.766,7.289C4.283,6.562 3.952,6.107 3.775,5.919C3.597,5.73 3.408,5.601 3.208,5.532C3.011,5.46 2.695,5.426 2.261,5.426L1.881,5.426L1.881,9.315L0,9.315ZM1.881,3.94L3.274,3.94C4.174,3.94 4.738,3.901 4.962,3.824C5.186,3.748 5.363,3.618 5.491,3.431C5.618,3.244 5.681,3.012 5.681,2.733C5.681,2.419 5.597,2.166 5.43,1.973C5.264,1.781 5.028,1.657 4.722,1.607C4.569,1.586 4.113,1.576 3.35,1.576L1.881,1.576L1.881,3.94Z" style="fill:rgb(0,101,161);fill-rule:nonzero;"/>
                </g>
                <g transform="matrix(1,0,0,1,779.99,71.0928)">
                    <path d="M0,0.001C0,4.543 -3.684,8.227 -8.227,8.227C-12.769,8.227 -16.452,4.543 -16.452,0.001C-16.452,-4.542 -12.769,-8.226 -8.227,-8.226C-3.684,-8.226 0,-4.542 0,0.001M-8.227,6.951C-4.394,6.951 -1.275,3.835 -1.275,0.001C-1.275,-3.832 -4.394,-6.95 -8.227,-6.95C-12.061,-6.95 -15.177,-3.832 -15.177,0.001C-15.177,3.835 -12.061,6.951 -8.227,6.951" style="fill:rgb(0,101,161);fill-rule:nonzero;"/>
                </g>
            </g>
        </g>
    </g>
</svg>
