<?xml version="1.0" encoding="UTF-8" standalone="no"?>
<!DOCTYPE svg PUBLIC "-//W3C//DTD SVG 1.1//EN" "http://www.w3.org/Graphics/SVG/1.1/DTD/svg11.dtd">
<svg width="100%" height="100%" viewBox="0 0 3300 1074" version="1.1" xmlns="http://www.w3.org/2000/svg" xmlns:xlink="http://www.w3.org/1999/xlink" xml:space="preserve" xmlns:serif="http://www.serif.com/" style="fill-rule:evenodd;clip-rule:evenodd;stroke-linejoin:round;stroke-miterlimit:1.41421;">
    <g transform="matrix(1,0,0,1,0,-131.221)">
        <g id="Página-1" serif:id="Página 1" transform="matrix(4.16667,0,0,3.65861,0,131.221)">
            <rect x="0" y="0" width="792" height="293.5" style="fill:none;"/>
            <g id="Layer-1" serif:id="Layer 1" transform="matrix(1,0,0,1.13887,0,-35.8662)">
                <g transform="matrix(1,0,0,1,532.93,199.99)">
                    <path d="M0,-83.874C-23.125,-83.874 -41.938,-65.062 -41.938,-41.936C-41.938,-18.811 -23.125,0.001 0,0.001C23.124,0.001 41.938,-18.811 41.938,-41.936C41.938,-65.062 23.124,-83.874 0,-83.874M0,37.706C-43.916,37.706 -79.644,1.979 -79.644,-41.936C-79.644,-85.853 -43.916,-121.58 0,-121.58C43.915,-121.58 79.643,-85.853 79.643,-41.936C79.643,1.979 43.915,37.706 0,37.706" style="fill:white;fill-rule:nonzero;"/>
                </g>
                <g transform="matrix(1,0,0,1,111.697,192.449)">
                    <path d="M0,-107.686C-29.689,-107.686 -53.843,-83.533 -53.843,-53.844C-53.843,-24.155 -29.689,-0.001 0,-0.001C29.689,-0.001 53.843,-24.155 53.843,-53.844C53.843,-83.533 29.689,-107.686 0,-107.686M0,49.854C-57.179,49.854 -103.697,3.335 -103.697,-53.844C-103.697,-111.022 -57.179,-157.54 0,-157.54C57.179,-157.54 103.697,-111.022 103.697,-53.844C103.697,3.335 57.179,49.854 0,49.854" style="fill:white;fill-rule:nonzero;"/>
                </g>
                <g transform="matrix(-1,-0,-0,1,383.927,80.522)">
                    <rect x="168.532" y="55.804" width="46.863" height="101.37" style="fill:white;"/>
                </g>
                <g transform="matrix(1,0,0,1,536.543,62.8673)">
                    <path d="M0,174.829L-88.744,174.829C-120.083,174.829 -145.578,149.334 -145.578,117.995L-145.578,0L-105.694,0L-105.694,117.995C-105.694,127.338 -98.087,134.946 -88.744,134.946L-41.549,134.946C-32.604,152.465 -17.918,166.583 0,174.829" style="fill:white;fill-rule:nonzero;"/>
                </g>
                <g transform="matrix(-0.388609,-0.921403,-0.921403,0.388609,381.283,72.4998)">
                    <path d="M-56.805,-73.089C-62.064,-60.31 -70.325,-48.774 -81.108,-39.627L-56.805,17.995C-42.733,16.648 -28.702,18.792 -15.884,23.938L-56.805,-73.089Z" style="fill:rgb(255,159,21);fill-rule:nonzero;"/>
                </g>
                <g transform="matrix(1,0,0,1,620.715,78.4113)">
                    <path d="M0,159.285L37.71,159.285L37.71,147.32L37.71,79.639C37.71,56.515 56.525,37.7 79.647,37.7C102.321,37.7 120.848,55.788 121.565,78.292L121.565,159.285L159.275,159.285L159.275,80.326C159.285,80.097 159.285,79.867 159.285,79.639C159.285,79.409 159.285,79.18 159.275,78.95L159.245,77.354C158.039,34.49 122.792,0 79.647,0C36.504,0 1.247,34.49 0.04,77.354" style="fill:white;fill-rule:nonzero;"/>
                </g>
                <g transform="matrix(1,0,0,1,223.537,78.4113)">
                    <path d="M0,159.285L37.71,159.285L37.71,147.32L37.71,79.639C37.71,56.515 56.525,37.7 79.647,37.7C102.321,37.7 120.847,55.788 121.565,78.292L121.565,159.285L159.275,159.285L159.275,80.326C159.285,80.097 159.285,79.867 159.285,79.639C159.285,79.409 159.285,79.18 159.275,78.95L159.245,77.354C158.039,34.49 122.792,0 79.647,0C36.503,0 1.247,34.49 0.04,77.354" style="fill:white;fill-rule:nonzero;"/>
                </g>
                <g transform="matrix(1,0,0,1,99.6626,120.896)">
                    <path d="M0,0.002C0,3.563 -2.887,6.449 -6.447,6.449C-10.009,6.449 -12.896,3.563 -12.896,0.002C-12.896,-3.561 -10.009,-6.447 -6.447,-6.447C-2.887,-6.447 0,-3.561 0,0.002" style="fill:white;fill-rule:nonzero;"/>
                </g>
                <g transform="matrix(1,0,0,1,139.564,120.896)">
                    <path d="M0,0.002C0,3.563 -2.887,6.449 -6.449,6.449C-10.011,6.449 -12.898,3.563 -12.898,0.002C-12.898,-3.561 -10.011,-6.447 -6.449,-6.447C-2.887,-6.447 0,-3.561 0,0.002" style="fill:white;fill-rule:nonzero;"/>
                </g>
                <g transform="matrix(1,0,0,1,84.5327,166.911)">
                    <path d="M0,-18.474C2.58,-17.244 4.962,-15.801 7.299,-14.311C7.887,-13.913 8.442,-13.606 9,-13.282C9.567,-12.976 10.063,-12.589 10.649,-12.328C11.224,-12.056 11.779,-11.767 12.33,-11.48C12.873,-11.18 13.487,-11.005 14.04,-10.741C14.604,-10.494 15.16,-10.242 15.755,-10.076L17.478,-9.475C18.671,-9.211 19.799,-8.795 20.997,-8.633C23.342,-8.14 25.731,-7.936 28.106,-7.98C30.486,-7.946 32.858,-8.282 35.198,-8.771C37.566,-9.212 39.833,-10.071 42.114,-11.007C42.665,-11.28 43.235,-11.527 43.808,-11.784C44.373,-12.052 44.892,-12.395 45.46,-12.681L46.302,-13.132L47.182,-13.659L48.971,-14.706C51.384,-16.07 53.839,-17.384 56.484,-18.474C54.961,-16.053 53.25,-13.857 51.497,-11.708C50.579,-10.639 49.798,-9.609 48.689,-8.551C48.164,-8.026 47.641,-7.485 47.071,-7.002C46.489,-6.535 45.906,-6.058 45.303,-5.606C40.44,-2.055 34.322,-0.01 28.18,-0.006L27.029,0C26.646,-0.013 26.263,-0.054 25.881,-0.08C25.117,-0.152 24.349,-0.181 23.591,-0.295C22.084,-0.589 20.568,-0.817 19.118,-1.323C17.644,-1.723 16.247,-2.364 14.86,-2.969C13.524,-3.702 12.169,-4.377 10.966,-5.298C9.712,-6.132 8.591,-7.141 7.51,-8.159C6.959,-8.654 6.49,-9.245 6,-9.793C5.523,-10.357 5.021,-10.911 4.634,-11.464C2.994,-13.7 1.398,-15.981 0,-18.474" style="fill:white;fill-rule:nonzero;"/>
                </g>
                <g transform="matrix(1,0,0,1,768.078,66.08)">
                    <path d="M0,9.315L0,0L3.961,0C4.954,0 5.678,0.083 6.129,0.25C6.579,0.417 6.941,0.714 7.212,1.144C7.483,1.571 7.62,2.062 7.62,2.612C7.62,3.31 7.413,3.887 7.002,4.343C6.593,4.799 5.977,5.085 5.16,5.204C5.567,5.44 5.903,5.702 6.167,5.986C6.432,6.268 6.788,6.773 7.24,7.497L8.376,9.315L6.126,9.315L4.766,7.289C4.283,6.562 3.952,6.107 3.775,5.919C3.597,5.73 3.408,5.601 3.208,5.532C3.011,5.46 2.695,5.426 2.261,5.426L1.881,5.426L1.881,9.315L0,9.315ZM1.881,3.94L3.274,3.94C4.174,3.94 4.738,3.901 4.962,3.824C5.186,3.748 5.363,3.618 5.491,3.431C5.618,3.244 5.681,3.012 5.681,2.733C5.681,2.419 5.597,2.166 5.43,1.973C5.264,1.781 5.028,1.657 4.722,1.607C4.569,1.586 4.113,1.576 3.35,1.576L1.881,1.576L1.881,3.94Z" style="fill:white;fill-rule:nonzero;"/>
                </g>
                <g transform="matrix(1,0,0,1,779.99,71.0928)">
                    <path d="M0,0.001C0,4.543 -3.684,8.227 -8.227,8.227C-12.769,8.227 -16.452,4.543 -16.452,0.001C-16.452,-4.542 -12.769,-8.226 -8.227,-8.226C-3.684,-8.226 0,-4.542 0,0.001M-8.227,6.951C-4.394,6.951 -1.275,3.835 -1.275,0.001C-1.275,-3.832 -4.394,-6.95 -8.227,-6.95C-12.061,-6.95 -15.177,-3.832 -15.177,0.001C-15.177,3.835 -12.061,6.951 -8.227,6.951" style="fill:white;fill-rule:nonzero;"/>
                </g>
                <g transform="matrix(1,0,0,1,397.172,255.307)">
                    <path d="M0,10.664L11.707,10.664L5.874,-5.417L0,10.664ZM14.997,19.705L12.581,12.998L-0.833,12.998L-3.292,19.705L-6.207,19.705L4.374,-9.041L7.373,-9.041L17.914,19.705L14.997,19.705Z" style="fill:white;fill-rule:nonzero;"/>
                </g>
                <g transform="matrix(1,0,0,1,436.353,249.243)">
                    <path d="M0,21.124C1.651,19.415 2.479,17.173 2.479,14.395C2.479,11.618 1.651,9.375 0,7.667C-1.652,5.958 -3.646,5.104 -5.978,5.104C-8.312,5.104 -10.297,5.923 -11.936,7.561C-13.575,9.202 -14.394,11.416 -14.394,14.208C-14.394,16.999 -13.567,19.276 -11.915,21.04C-10.263,22.804 -8.276,23.686 -5.958,23.686C-3.639,23.686 -1.652,22.831 0,21.124M-14.269,22.811C-16.352,20.561 -17.394,17.693 -17.394,14.208C-17.394,10.722 -16.359,7.917 -14.29,5.792C-12.221,3.667 -9.589,2.604 -6.396,2.604C-4.339,2.604 -2.534,3.104 -0.979,4.104C0.576,5.104 1.729,6.396 2.479,7.979L2.479,-5.061L5.396,-5.061L5.396,25.769L2.479,25.769L2.479,20.769C1.729,22.352 0.576,23.651 -0.979,24.664C-2.534,25.678 -4.339,26.185 -6.396,26.185C-9.561,26.185 -12.186,25.06 -14.269,22.811" style="fill:white;fill-rule:nonzero;"/>
                </g>
                <g transform="matrix(1,0,0,1,445.456,275.012)">
                    <path d="M0,-22.748L3.125,-22.748L10.583,-2.875L18.08,-22.748L21.206,-22.748L12.082,0L9.123,0L0,-22.748Z" style="fill:white;fill-rule:nonzero;"/>
                </g>
                <g transform="matrix(1,0,0,1,487.825,264.888)">
                    <path d="M0,-2.5C0,-4.999 -0.757,-6.991 -2.271,-8.478C-3.784,-9.963 -5.659,-10.707 -7.895,-10.707C-10.132,-10.707 -11.992,-9.978 -13.478,-8.52C-14.964,-7.062 -15.776,-5.054 -15.915,-2.5L0,-2.5ZM-7.957,10.54C-11.207,10.54 -13.846,9.457 -15.874,7.29C-17.9,5.124 -18.914,2.271 -18.914,-1.271C-18.914,-4.813 -17.881,-7.659 -15.812,-9.812C-13.742,-11.963 -11.062,-13.04 -7.77,-13.04C-4.479,-13.04 -1.861,-12.025 0.083,-9.999C2.027,-7.971 3,-5.458 3,-2.457C3,-1.652 2.944,-0.902 2.832,-0.209L-15.915,-0.209C-15.805,2.402 -15.013,4.457 -13.54,5.958C-12.067,7.458 -10.207,8.207 -7.957,8.207C-6.207,8.207 -4.715,7.805 -3.479,6.999C-2.243,6.194 -1.39,5.139 -0.917,3.833L2.208,3.833C1.458,5.776 0.235,7.381 -1.459,8.645C-3.153,9.908 -5.319,10.54 -7.957,10.54" style="fill:white;fill-rule:nonzero;"/>
                </g>
                <g transform="matrix(1,0,0,1,498.49,274.596)">
                    <path d="M0,-22.332L0,-18.581C1.249,-21.358 3.596,-22.748 7.041,-22.748L7.041,-19.707L6.207,-19.707C4.207,-19.707 2.673,-19.165 1.604,-18.082C0.534,-16.999 0,-15.138 0,-12.499L0,0.416L-2.917,0.416L-2.917,-22.332L0,-22.332Z" style="fill:white;fill-rule:nonzero;"/>
                </g>
                <g transform="matrix(1,0,0,1,520.404,267.012)">
                    <path d="M0,-12.455L-6.291,-12.455L-6.291,2.626C-6.291,3.765 -6.069,4.564 -5.624,5.022C-5.181,5.479 -4.388,5.709 -3.249,5.709L0,5.709L0,8L-3.874,8C-7.43,8 -9.207,6.208 -9.207,2.626L-9.207,-12.455L-12.374,-12.455L-12.374,-14.748L-9.207,-14.748L-9.207,-20.455L-6.291,-20.455L-6.291,-14.748L0,-14.748L0,-12.455Z" style="fill:white;fill-rule:nonzero;"/>
                </g>
                <g transform="matrix(1,0,0,1,0,225.194)">
                    <path d="M524.403,27.07L527.32,27.07L527.32,49.818L524.403,49.818L524.403,27.07ZM528.028,20.634C528.028,21.231 527.826,21.739 527.424,22.155C527.021,22.572 526.521,22.779 525.923,22.779C525.326,22.779 524.82,22.572 524.403,22.155C523.987,21.739 523.778,21.231 523.778,20.634C523.778,20.037 523.987,19.53 524.403,19.114C524.82,18.697 525.326,18.488 525.923,18.488C526.521,18.488 527.021,18.697 527.424,19.114C527.826,19.53 528.028,20.037 528.028,20.634" style="fill:white;fill-rule:nonzero;"/>
                </g>
                <g transform="matrix(1,0,0,1,532.942,268.72)">
                    <path d="M0,-10.164C0,-12.053 0.777,-13.643 2.334,-14.934C3.889,-16.226 5.874,-16.872 8.29,-16.872C10.708,-16.872 12.588,-16.24 13.936,-14.976C15.283,-13.713 16.026,-11.969 16.164,-9.747L13.165,-9.747C13.109,-11.136 12.637,-12.281 11.748,-13.185C10.859,-14.088 9.624,-14.539 8.04,-14.539C6.458,-14.539 5.215,-14.15 4.312,-13.372C3.409,-12.595 2.959,-11.657 2.959,-10.56C2.959,-9.463 3.292,-8.595 3.958,-7.956C4.625,-7.316 5.465,-6.888 6.479,-6.665C7.491,-6.442 8.589,-6.179 9.77,-5.873C10.949,-5.567 12.047,-5.241 13.062,-4.893C14.075,-4.547 14.915,-3.921 15.582,-3.02C16.248,-2.116 16.581,-0.958 16.581,0.459C16.581,2.292 15.817,3.792 14.29,4.959C12.762,6.126 10.756,6.708 8.271,6.708C5.784,6.708 3.818,6.069 2.375,4.791C0.931,3.515 0.139,1.778 0,-0.415L3,-0.415C3.056,1.001 3.556,2.153 4.5,3.042C5.443,3.932 6.742,4.375 8.396,4.375C10.047,4.375 11.332,4.021 12.249,3.314C13.165,2.606 13.623,1.695 13.623,0.584C13.623,-0.527 13.29,-1.401 12.624,-2.041C11.957,-2.679 11.117,-3.117 10.103,-3.352C9.089,-3.589 7.992,-3.858 6.812,-4.166C5.631,-4.47 4.535,-4.79 3.521,-5.124C2.507,-5.456 1.667,-6.054 1,-6.915C0.334,-7.775 0,-8.858 0,-10.164" style="fill:white;fill-rule:nonzero;"/>
                </g>
                <g transform="matrix(1,0,0,1,0,225.194)">
                    <path d="M555.147,27.07L558.064,27.07L558.064,49.818L555.147,49.818L555.147,27.07ZM558.773,20.634C558.773,21.231 558.571,21.739 558.169,22.155C557.766,22.572 557.267,22.779 556.668,22.779C556.071,22.779 555.565,22.572 555.147,22.155C554.731,21.739 554.523,21.231 554.523,20.634C554.523,20.037 554.731,19.53 555.147,19.114C555.565,18.697 556.071,18.488 556.668,18.488C557.267,18.488 557.766,18.697 558.169,19.114C558.571,19.53 558.773,20.037 558.773,20.634" style="fill:white;fill-rule:nonzero;"/>
                </g>
                <g transform="matrix(1,0,0,1,567.23,274.596)">
                    <path d="M0,-22.332L0,-18.624C1.526,-21.373 4.041,-22.748 7.54,-22.748C10.066,-22.748 12.178,-21.921 13.872,-20.269C15.566,-18.616 16.413,-16.234 16.413,-13.125L16.413,0.416L13.539,0.416L13.539,-12.583C13.539,-15.082 12.936,-16.984 11.727,-18.29C10.519,-19.596 8.866,-20.248 6.77,-20.248C4.672,-20.248 3.02,-19.596 1.812,-18.29C0.604,-16.984 0,-15.082 0,-12.583L0,0.416L-2.917,0.416L-2.917,-22.332L0,-22.332Z" style="fill:white;fill-rule:nonzero;"/>
                </g>
                <g transform="matrix(1,0,0,1,605.618,267.657)">
                    <path d="M0,2.71C1.651,1.001 2.479,-1.241 2.479,-4.019C2.479,-6.796 1.651,-9.039 0,-10.747C-1.652,-12.456 -3.646,-13.31 -5.978,-13.31C-8.312,-13.31 -10.297,-12.491 -11.936,-10.853C-13.575,-9.212 -14.394,-6.998 -14.394,-4.206C-14.394,-1.415 -13.567,0.862 -11.915,2.626C-10.262,4.39 -8.276,5.272 -5.958,5.272C-3.639,5.272 -1.652,4.417 0,2.71M-14.269,4.397C-16.352,2.147 -17.394,-0.721 -17.394,-4.206C-17.394,-7.692 -16.359,-10.497 -14.29,-12.622C-12.221,-14.747 -9.588,-15.81 -6.395,-15.81C-4.339,-15.81 -2.534,-15.31 -0.979,-14.31C0.577,-13.31 1.729,-12.018 2.479,-10.435L2.479,-15.394L5.396,-15.394L5.396,8.147C5.396,11.229 4.375,13.728 2.334,15.646C0.292,17.562 -2.201,18.52 -5.145,18.52C-8.089,18.52 -10.576,17.797 -12.603,16.353C-14.63,14.909 -15.796,13.116 -16.102,10.979L-13.227,10.979C-12.867,12.395 -11.95,13.59 -10.478,14.561C-9.006,15.534 -7.2,16.021 -5.062,16.021C-2.924,16.021 -1.132,15.318 0.312,13.916C1.757,12.513 2.479,10.589 2.479,8.147L2.479,2.355C1.729,3.938 0.577,5.237 -0.979,6.25C-2.534,7.264 -4.339,7.771 -6.395,7.771C-9.561,7.771 -12.185,6.646 -14.269,4.397" style="fill:white;fill-rule:nonzero;"/>
                </g>
                <g transform="matrix(1,0,0,1,635.053,255.307)">
                    <path d="M0,10.664L11.706,10.664L5.874,-5.417L0,10.664ZM14.997,19.705L12.581,12.998L-0.833,12.998L-3.292,19.705L-6.208,19.705L4.373,-9.041L7.373,-9.041L17.914,19.705L14.997,19.705Z" style="fill:white;fill-rule:nonzero;"/>
                </g>
                <g transform="matrix(1,0,0,1,674.233,267.657)">
                    <path d="M0,2.71C1.652,1.001 2.479,-1.241 2.479,-4.019C2.479,-6.796 1.652,-9.039 0,-10.747C-1.651,-12.456 -3.646,-13.31 -5.978,-13.31C-8.311,-13.31 -10.297,-12.491 -11.935,-10.853C-13.575,-9.212 -14.394,-6.998 -14.394,-4.206C-14.394,-1.415 -13.567,0.862 -11.915,2.626C-10.262,4.39 -8.276,5.272 -5.957,5.272C-3.639,5.272 -1.651,4.417 0,2.71M-14.269,4.397C-16.351,2.147 -17.393,-0.721 -17.393,-4.206C-17.393,-7.692 -16.359,-10.497 -14.29,-12.622C-12.221,-14.747 -9.588,-15.81 -6.395,-15.81C-4.339,-15.81 -2.534,-15.31 -0.978,-14.31C0.577,-13.31 1.729,-12.018 2.479,-10.435L2.479,-15.394L5.396,-15.394L5.396,8.147C5.396,11.229 4.375,13.728 2.334,15.646C0.293,17.562 -2.2,18.52 -5.145,18.52C-8.089,18.52 -10.575,17.797 -12.603,16.353C-14.63,14.909 -15.796,13.116 -16.102,10.979L-13.227,10.979C-12.866,12.395 -11.949,13.59 -10.478,14.561C-9.006,15.534 -7.2,16.021 -5.062,16.021C-2.924,16.021 -1.132,15.318 0.312,13.916C1.757,12.513 2.479,10.589 2.479,8.147L2.479,2.355C1.729,3.938 0.577,5.237 -0.978,6.25C-2.534,7.264 -4.339,7.771 -6.395,7.771C-9.561,7.771 -12.185,6.646 -14.269,4.397" style="fill:white;fill-rule:nonzero;"/>
                </g>
                <g transform="matrix(1,0,0,1,703.335,264.888)">
                    <path d="M0,-2.5C0,-4.999 -0.758,-6.991 -2.271,-8.478C-3.785,-9.963 -5.66,-10.707 -7.896,-10.707C-10.132,-10.707 -11.993,-9.978 -13.479,-8.52C-14.964,-7.062 -15.777,-5.054 -15.916,-2.5L0,-2.5ZM-7.958,10.54C-11.207,10.54 -13.847,9.457 -15.875,7.29C-17.901,5.124 -18.915,2.271 -18.915,-1.271C-18.915,-4.813 -17.881,-7.659 -15.813,-9.812C-13.743,-11.963 -11.063,-13.04 -7.771,-13.04C-4.48,-13.04 -1.862,-12.025 0.082,-9.999C2.026,-7.971 2.999,-5.458 2.999,-2.457C2.999,-1.652 2.943,-0.902 2.831,-0.209L-15.916,-0.209C-15.806,2.402 -15.014,4.457 -13.541,5.958C-12.068,7.458 -10.208,8.207 -7.958,8.207C-6.208,8.207 -4.716,7.805 -3.479,6.999C-2.244,6.194 -1.391,5.139 -0.917,3.833L2.207,3.833C1.457,5.776 0.234,7.381 -1.46,8.645C-3.154,9.908 -5.32,10.54 -7.958,10.54" style="fill:white;fill-rule:nonzero;"/>
                </g>
                <g transform="matrix(1,0,0,1,713.999,274.596)">
                    <path d="M0,-22.332L0,-18.624C1.527,-21.373 4.041,-22.748 7.541,-22.748C10.066,-22.748 12.179,-21.921 13.873,-20.269C15.567,-18.616 16.414,-16.234 16.414,-13.125L16.414,0.416L13.539,0.416L13.539,-12.583C13.539,-15.082 12.936,-16.984 11.727,-18.29C10.519,-19.596 8.867,-20.248 6.77,-20.248C4.673,-20.248 3.02,-19.596 1.812,-18.29C0.604,-16.984 0,-15.082 0,-12.583L0,0.416L-2.917,0.416L-2.917,-22.332L0,-22.332Z" style="fill:white;fill-rule:nonzero;"/>
                </g>
                <g transform="matrix(1,0,0,1,738.035,255.098)">
                    <path d="M0,17.08C-2.026,14.914 -3.04,12.067 -3.04,8.541C-3.04,5.014 -2.026,2.166 0,0C2.028,-2.166 4.668,-3.25 7.917,-3.25C13.25,-3.25 16.638,-0.861 18.082,3.916L14.958,3.916C14.484,2.389 13.645,1.201 12.437,0.354C11.229,-0.493 9.722,-0.917 7.917,-0.917C5.556,-0.917 3.639,-0.104 2.168,1.52C0.695,3.145 -0.041,5.477 -0.041,8.519C-0.041,11.56 0.695,13.9 2.168,15.539C3.639,17.179 5.556,17.997 7.917,17.997C9.722,17.997 11.229,17.575 12.437,16.726C13.645,15.881 14.484,14.692 14.958,13.164L18.082,13.164C17.359,15.332 16.151,17.067 14.458,18.372C12.764,19.679 10.583,20.33 7.917,20.33C4.668,20.33 2.028,19.247 0,17.08" style="fill:white;fill-rule:nonzero;"/>
                </g>
                <g transform="matrix(1,0,0,1,767.95,263.18)">
                    <path d="M0,11.498L-9.041,-10.916L-5.917,-10.916L1.582,8.415L9.082,-10.916L12.04,-10.916L-1.46,22.414L-4.416,22.414L0,11.498Z" style="fill:white;fill-rule:nonzero;"/>
                </g>
            </g>
        </g>
    </g>
</svg>
